<svg version="1.1" id="Layer_1" xmlns="http://www.w3.org/2000/svg" xmlns:xlink="http://www.w3.org/1999/xlink" x="0px" y="0px"
	 width="100%" viewBox="0 0 1298 660" enable-background="new 0 0 1298 660" xml:space="preserve">
<path opacity="0.000000" stroke="none" 
	d="
M774.000000,661.000000 
	C516.032837,661.000000 258.565704,661.000000 1.049268,661.000000 
	C1.049268,441.060913 1.049268,221.121826 1.049268,1.091361 
	C433.550568,1.091361 866.101135,1.091361 1298.825928,1.091361 
	C1298.825928,220.999893 1298.825928,440.999939 1298.825928,661.000000 
	C1124.121704,661.000000 949.310852,661.000000 774.000000,661.000000 
M409.478546,164.134613 
	C400.476013,151.802597 388.061310,147.015411 373.118256,147.044067 
	C313.968964,147.157486 254.819336,147.121368 195.669891,147.069962 
	C180.120377,147.056442 168.074966,153.289154 159.505539,166.337082 
	C131.636093,208.771439 103.734764,251.184891 75.795212,293.573090 
	C71.072838,300.737579 68.671707,308.467102 68.680420,317.071716 
	C68.732582,368.556702 68.569420,420.042603 68.880379,471.525757 
	C68.918388,477.817993 70.246704,484.614471 72.894310,490.281525 
	C80.405418,506.358704 94.228508,512.686584 111.453323,512.680847 
	C166.270737,512.662415 221.088272,512.613708 275.905487,512.717407 
	C288.939423,512.742065 299.734375,508.370087 308.981812,499.033234 
	C340.169586,467.543884 371.525299,436.219452 402.990417,405.006989 
	C412.168213,395.902863 416.501984,385.315247 416.468140,372.389862 
	C416.309021,311.574615 416.368530,250.758667 416.429535,189.943054 
	C416.438599,180.920746 414.894226,172.409317 409.478546,164.134613 
M1094.807495,245.601227 
	C1079.344116,236.492599 1065.918945,241.017883 1053.442749,252.101273 
	C1048.228149,242.038040 1039.204590,240.765076 1029.487305,240.913879 
	C1019.601868,241.065308 1011.261841,244.771011 1004.407166,252.728622 
	C1002.783386,242.480911 1002.783386,242.480927 993.336182,242.565979 
	C986.237488,242.629898 986.019165,242.875885 985.928589,249.796692 
	C985.710693,266.444977 985.458191,283.092834 985.221130,299.740845 
	C984.998230,315.387115 983.326111,312.589447 998.196594,313.097290 
	C1003.010925,313.261658 1004.193237,311.270935 1004.218384,306.962128 
	C1004.270081,298.141510 1004.510010,289.313049 1005.008667,280.506866 
	C1005.395935,273.667694 1007.994568,267.608337 1012.840942,262.627991 
	C1017.117798,258.233002 1024.067017,256.316193 1028.833008,258.484650 
	C1034.307983,260.975739 1034.810913,266.101807 1034.865479,271.177338 
	C1034.969360,280.834045 1034.801880,290.493347 1034.830811,300.151276 
	C1034.874878,314.855194 1032.769775,312.716736 1047.875488,313.076874 
	C1052.598511,313.189545 1053.970825,311.210815 1053.894897,306.834259 
	C1053.738770,297.848389 1053.675415,288.848053 1054.016968,279.870483 
	C1054.294067,272.583740 1057.539429,266.401001 1062.921021,261.503082 
	C1067.229980,257.581360 1072.494141,256.700867 1077.837280,258.592499 
	C1082.895874,260.383423 1083.335938,265.221649 1083.767212,269.760590 
	C1083.908447,271.247253 1083.820923,272.755737 1083.834717,274.254303 
	C1083.935791,285.244080 1084.088501,296.233734 1084.109253,307.223663 
	C1084.117065,311.292542 1085.489380,313.532959 1089.999756,313.051819 
	C1092.469482,312.788361 1095.008789,312.811127 1097.484131,313.047485 
	C1101.828613,313.462341 1103.361816,311.798553 1103.208984,307.358948 
	C1102.676514,291.883667 1102.424316,276.398010 1102.159180,260.914673 
	C1102.056519,254.923264 1100.143433,249.857437 1094.807495,245.601227 
M465.849182,342.874146 
	C478.830444,375.254913 491.808838,407.636810 504.799255,440.013916 
	C505.664581,442.170624 506.458191,444.380829 507.577393,446.404510 
	C508.885712,448.770111 510.645050,448.895264 512.114441,446.505768 
	C512.977112,445.102936 513.577576,443.525757 514.192444,441.985596 
	C521.461060,423.778503 528.671509,405.548035 535.976746,387.355682 
	C541.672791,373.170776 547.515442,359.044769 553.219727,344.863098 
	C555.219727,339.890839 554.498291,338.620514 549.614319,338.424469 
	C545.457336,338.257568 541.276611,338.577850 537.128479,338.323578 
	C533.098999,338.076630 531.160645,339.819275 529.948547,343.573029 
	C524.741150,359.700043 519.314636,375.756378 513.948792,391.832092 
	C513.033264,394.574982 512.024048,397.286652 510.707581,401.002075 
	C509.528595,397.850830 508.749603,395.846680 508.026154,393.822693 
	C502.043030,377.084442 496.171387,360.304840 489.966125,343.649475 
	C489.190643,341.568024 486.827820,338.889832 484.923340,338.645172 
	C479.684448,337.972046 474.296173,338.365601 468.971344,338.504639 
	C466.828644,338.560547 464.891876,339.228271 465.849182,342.874146 
M725.090271,412.544037 
	C725.412537,416.020782 725.481201,419.543488 726.101868,422.966125 
	C728.514282,436.271057 737.815369,446.212616 749.444824,447.913055 
	C759.581909,449.395264 768.970032,447.387543 777.364197,441.317535 
	C778.741150,440.321808 780.153625,439.375214 781.831177,438.210541 
	C782.679993,447.004669 782.679993,447.004822 790.783203,447.005188 
	C792.783203,447.005280 794.789612,446.901581 796.781738,447.026733 
	C799.966492,447.226837 801.323608,445.867584 801.296265,442.654419 
	C801.121582,422.155762 801.062378,401.655975 800.810852,381.158447 
	C800.793762,379.765106 799.629456,377.269714 798.809753,377.188263 
	C794.371704,376.747223 789.766968,376.336609 785.452393,377.150085 
	C783.835266,377.454956 782.845459,381.087250 781.364624,383.542328 
	C780.142395,382.679443 778.704407,381.624207 777.226990,380.627441 
	C762.343323,370.585907 743.394104,373.449677 733.091980,387.325439 
	C727.744263,394.528198 725.599487,402.809021 725.090271,412.544037 
M636.183594,312.890320 
	C641.422852,310.251160 646.662109,307.612000 651.873840,304.986694 
	C652.753113,313.004974 652.753113,313.005157 661.161316,313.005127 
	C663.158508,313.005096 665.159668,312.922485 667.151978,313.020966 
	C670.187927,313.171051 671.305359,311.665771 671.284119,308.794617 
	C671.131165,288.158020 671.071655,267.520386 670.774048,246.886063 
	C670.754272,245.512650 669.127930,243.094131 668.070923,242.991409 
	C663.804382,242.576721 659.338196,242.295227 655.222412,243.209808 
	C653.609619,243.568207 652.724670,247.202072 651.376831,249.575592 
	C650.000732,248.595734 648.550110,247.501526 647.040039,246.496811 
	C629.659668,234.933502 607.741943,241.024582 599.190491,259.874390 
	C595.757874,267.440857 594.447083,275.469238 595.285278,283.728119 
	C597.632202,306.853180 614.281433,318.978973 636.183594,312.890320 
M879.950012,313.747833 
	C885.908325,313.681702 892.044250,314.515839 897.791931,313.381927 
	C915.570190,309.874603 925.972412,293.926392 924.281982,273.945587 
	C922.612915,254.217392 909.903687,241.687698 890.571350,240.711044 
	C870.481995,239.696152 855.631104,252.038712 852.516479,272.338501 
	C849.440613,292.385590 859.828430,308.473480 879.950012,313.747833 
M715.661621,417.502045 
	C715.567932,408.011627 715.433044,398.521393 715.390320,389.030762 
	C715.327942,375.158569 717.222961,376.763580 702.869629,376.511169 
	C698.472961,376.433868 696.533203,377.787628 696.742432,382.524506 
	C697.072693,390.002930 696.941101,397.508850 696.799438,404.999237 
	C696.629700,413.967987 694.358276,422.214050 686.948730,428.028748 
	C681.089478,432.626770 674.550049,433.284241 667.707458,430.181702 
	C661.734192,427.473328 662.216492,422.034485 662.187439,416.897491 
	C662.135620,407.739807 662.351746,398.579254 662.209778,389.423737 
	C661.988281,375.133575 665.069824,376.674805 648.614136,376.544495 
	C645.054504,376.516327 643.505493,377.942017 643.501282,381.558197 
	C643.483215,397.043427 643.274048,412.528473 643.275879,428.013611 
	C643.276550,433.779633 645.359802,438.731384 650.063049,442.372131 
	C658.525452,448.922760 668.317383,449.739594 678.040405,447.288483 
	C684.849304,445.571991 691.126465,441.746185 697.518921,438.916504 
	C699.862793,448.100067 697.129639,446.879089 709.638611,447.004761 
	C710.138062,447.009796 710.641479,446.964722 711.136597,447.011261 
	C714.865967,447.361877 716.150452,445.574249 716.038330,441.976410 
	C715.794495,434.155426 715.783264,426.327179 715.661621,417.502045 
M535.395996,223.163788 
	C536.174866,219.619858 537.478271,216.097702 537.626343,212.527603 
	C537.962463,204.421509 537.704346,204.377945 529.799011,204.376099 
	C512.310120,204.372025 494.820435,204.273834 477.332550,204.408585 
	C464.705658,204.505859 465.081909,201.793884 465.298859,217.381729 
	C465.363861,222.051086 467.141663,223.973175 471.868195,223.785385 
	C478.117981,223.537064 484.385101,223.724228 491.010437,223.724228 
	C491.010437,226.237000 491.011841,228.037888 491.010254,229.838791 
	C490.989532,253.157303 490.910248,276.475983 490.968109,299.794281 
	C491.005676,314.922241 488.869080,312.871429 504.213226,312.996277 
	C510.921875,313.050873 511.067322,312.842377 511.063293,305.850067 
	C511.048737,280.366241 511.029449,254.882401 511.012238,229.398575 
	C511.011047,227.634216 511.012085,225.869858 511.012085,223.477142 
	C519.333862,223.477142 526.966614,223.477142 535.395996,223.163788 
M752.359802,303.709656 
	C752.230103,290.224243 752.142151,276.738251 751.958984,263.253571 
	C751.771301,249.439926 743.165344,240.926025 729.371155,240.902908 
	C719.131409,240.885757 710.129883,243.958679 703.230774,252.569519 
	C702.794067,251.246674 702.510620,250.643814 702.398987,250.010651 
	C701.086487,242.565659 701.093262,242.564438 693.345886,242.562851 
	C692.513428,242.562683 691.672058,242.642548 690.849915,242.550461 
	C686.126892,242.021637 684.422119,244.019791 684.441162,248.818893 
	C684.508362,265.799927 684.127502,282.782196 684.101074,299.764252 
	C684.076965,315.233673 681.645264,312.689972 697.626526,313.055603 
	C701.861938,313.152466 703.146851,311.296234 703.075806,307.342102 
	C702.941101,299.853088 703.008362,292.356018 703.186035,284.866943 
	C703.382935,276.563416 704.921509,268.658203 710.916443,262.301666 
	C714.960815,258.013489 721.778625,256.378143 726.937073,258.540680 
	C732.309753,260.793121 733.160034,265.354706 733.136353,270.478088 
	C733.087036,281.133575 733.139648,291.789734 733.188782,302.445435 
	C733.237488,313.006836 733.258179,313.006744 743.953064,313.006195 
	C752.496277,313.005768 752.496277,313.005768 752.359802,303.709656 
M1007.539551,395.055511 
	C1003.904602,386.055542 998.533081,378.743195 988.663025,375.921143 
	C964.964539,369.145233 943.897461,384.021118 942.207520,408.693451 
	C941.018738,426.049957 948.474854,440.063080 962.780945,445.688416 
	C977.641724,451.531891 992.168945,449.249451 1006.146545,442.179352 
	C1009.037964,440.716797 1009.577454,438.681061 1008.339905,435.584076 
	C1004.680054,426.425354 1004.362915,426.217316 995.545715,430.297394 
	C993.741821,431.132202 991.916931,431.989258 990.015137,432.533875 
	C979.341248,435.590454 968.564758,431.405853 963.800964,422.228851 
	C965.470398,421.515747 967.096069,420.735840 968.780518,420.115601 
	C980.942444,415.637329 993.092651,411.125031 1005.300537,406.775177 
	C1008.999329,405.457275 1010.382935,403.363586 1008.970337,399.592194 
	C1008.505188,398.350281 1008.218994,397.041351 1007.539551,395.055511 
M1160.378296,313.941559 
	C1165.858154,312.086578 1171.443359,310.478729 1176.750488,308.218201 
	C1178.238892,307.584259 1179.963135,304.904388 1179.781128,303.377319 
	C1178.727417,294.534973 1174.787842,292.495148 1166.901978,296.138336 
	C1164.947144,297.041412 1162.977539,298.000122 1160.913818,298.565247 
	C1149.811890,301.605652 1137.311035,296.290710 1134.877563,288.130829 
	C1136.520386,287.455231 1138.174438,286.712097 1139.871948,286.087036 
	C1152.030273,281.610352 1164.241333,277.270203 1176.312866,272.571686 
	C1178.048218,271.896240 1180.334717,269.513519 1180.312500,267.950195 
	C1180.163818,257.511078 1169.957031,244.887878 1159.863159,241.949158 
	C1136.027344,235.009552 1114.709595,250.093552 1113.192993,274.971802 
	C1112.086914,293.121948 1120.631958,307.413544 1135.862671,312.569855 
	C1143.578003,315.181854 1151.511108,315.528656 1160.378296,313.941559 
M821.626648,313.004242 
	C822.626343,313.004242 823.626038,313.004364 824.625732,313.004211 
	C833.004395,313.003052 833.007507,313.003052 833.004150,304.837616 
	C832.998535,291.175140 832.988342,277.512665 832.980408,263.850189 
	C832.979431,262.099152 832.980347,260.348114 832.980347,258.447052 
	C834.697388,258.321289 835.670349,258.197601 836.644531,258.186676 
	C847.986511,258.059235 847.137329,260.131714 847.212280,246.786972 
	C847.230225,243.591263 845.941345,242.179337 842.802185,242.230545 
	C839.684143,242.281418 836.564575,242.241684 832.819031,242.241684 
	C833.058289,237.072327 832.913574,232.415283 833.568176,227.873459 
	C834.559265,220.996796 836.794128,219.632492 843.951904,219.287247 
	C845.563599,219.209488 848.101685,217.448547 848.450806,216.028976 
	C849.469543,211.886703 849.623291,207.527496 849.992676,203.242691 
	C850.010559,203.035172 848.872986,202.583389 848.236511,202.485321 
	C834.110413,200.308350 820.756836,202.001175 816.037109,220.186905 
	C814.228149,227.156906 814.160095,234.578751 813.275574,241.988693 
	C810.213196,243.062927 804.675049,240.280182 804.697083,247.457642 
	C804.726257,256.957336 804.442993,256.958191 814.072998,258.902466 
	C814.072998,260.609833 814.076416,262.409393 814.072388,264.208954 
	C814.040833,278.204620 814.002563,292.200287 813.977661,306.195953 
	C813.966064,312.701141 814.158081,312.884216 821.626648,313.004242 
M879.427734,438.034180 
	C878.786133,439.198669 878.069214,440.328644 877.516785,441.534027 
	C875.743774,445.403076 876.507507,446.927979 880.652893,446.953308 
	C896.960144,447.052979 913.269897,447.090149 929.573608,446.830627 
	C930.947571,446.808746 933.266785,444.555573 933.482605,443.093414 
	C935.277893,430.928619 934.101807,429.690460 922.002380,429.690460 
	C920.671143,429.690460 919.339844,429.690460 918.008606,429.690460 
	C913.992065,429.690460 909.975464,429.690430 905.147522,429.690430 
	C906.647156,426.793640 907.523438,425.024506 908.466370,423.291656 
	C915.692200,410.012817 922.965942,396.759949 930.149231,383.458191 
	C933.250732,377.714844 932.580688,376.623474 925.951111,376.586884 
	C914.136536,376.521637 902.321350,376.549347 890.506470,376.572113 
	C877.138611,376.597870 879.155945,375.555206 878.899719,388.463989 
	C878.816528,392.653473 880.590088,394.088287 884.568542,393.982788 
	C890.641418,393.821716 896.721741,393.940582 903.913940,393.940582 
	C895.550964,409.034271 887.694275,423.214264 879.427734,438.034180 
M833.880737,392.500000 
	C833.908020,377.353149 833.984131,362.206177 833.947388,347.059479 
	C833.917908,334.937103 835.810425,335.188629 822.105103,335.275696 
	C815.126343,335.320038 814.924622,335.508728 814.924683,342.676605 
	C814.924927,373.136627 814.883667,403.596741 814.952759,434.056641 
	C814.986145,448.762421 812.902954,446.746185 827.952820,447.073547 
	C832.559387,447.173767 834.097351,445.451782 834.038818,440.936859 
	C833.834106,425.126556 833.911865,409.312592 833.880737,392.500000 
M602.476624,378.883484 
	C591.853027,388.080505 592.508606,405.225250 603.913513,413.570221 
	C606.854736,415.722351 610.115967,417.438965 613.241943,419.336365 
	C616.740295,421.459839 617.854187,424.632690 616.585632,428.337494 
	C615.320374,432.032715 611.991882,432.562531 608.729126,431.882416 
	C606.180725,431.351257 603.864441,429.664093 601.315430,429.194763 
	C599.771912,428.910645 597.103210,429.429932 596.441223,430.509064 
	C591.318604,438.860352 593.275513,443.984131 602.506531,447.307495 
	C603.908142,447.812073 605.368469,448.183929 606.828003,448.492065 
	C618.298523,450.913818 627.909302,445.933624 631.870544,435.547577 
	C636.520081,423.356567 633.045532,411.875092 622.946167,405.938843 
	C620.225220,404.339569 616.976685,403.130890 615.054199,400.835205 
	C613.410828,398.872864 611.944519,394.859131 612.896301,393.115326 
	C614.048035,391.005188 617.775696,390.199524 620.503418,389.119385 
	C621.225952,388.833252 622.374573,389.599548 623.320374,389.904755 
	C626.451721,390.915283 628.997498,390.649078 629.795349,386.825867 
	C630.530640,383.302887 633.211121,379.289154 627.529236,377.266571 
	C619.209106,374.304871 611.000122,373.604584 602.476624,378.883484 
M766.385010,249.020325 
	C759.716614,261.435944 762.636719,273.441040 774.267395,281.174347 
	C776.617615,282.736969 779.118896,284.070618 781.525024,285.551147 
	C784.850769,287.597443 785.738831,290.719757 784.641174,294.205170 
	C783.557739,297.645477 780.575867,298.438690 777.362488,297.955780 
	C775.432617,297.665802 773.584778,296.827881 771.700989,296.233398 
	C769.372681,295.498535 767.093994,292.727905 764.637024,295.878143 
	C762.082886,299.152924 761.255859,306.921967 763.131104,308.965118 
	C772.082336,318.717865 791.728210,316.409180 798.321655,304.829681 
	C805.354675,292.478271 801.540710,278.100647 789.345886,271.008270 
	C787.908630,270.172363 786.419983,269.418915 785.020325,268.525146 
	C781.564026,266.318115 778.975464,263.550171 780.518005,259.066101 
	C781.739197,255.516266 785.682251,254.333038 790.708679,255.701126 
	C791.190125,255.832153 791.680542,255.935471 792.153015,256.092987 
	C795.168152,257.098145 797.147583,255.922241 797.708740,252.957199 
	C798.298279,249.841782 801.323120,246.148254 796.546265,243.792053 
	C788.680054,239.912003 774.042908,238.731842 766.385010,249.020325 
M1043.047241,401.692932 
	C1046.816528,396.450745 1051.708252,393.765564 1058.383057,394.166901 
	C1059.778931,394.250824 1062.109375,392.580963 1062.599976,391.213684 
	C1063.820312,387.812256 1064.321289,384.135162 1064.932373,380.538361 
	C1065.405151,377.755676 1064.273682,376.231659 1061.224854,375.935974 
	C1052.723022,375.111542 1045.846436,377.689667 1040.978638,384.938721 
	C1040.056152,386.312317 1039.043945,387.625549 1037.641479,389.562805 
	C1035.695068,376.288055 1035.695923,376.426941 1025.037598,376.496552 
	C1020.835632,376.524017 1019.071350,377.964233 1019.087830,382.296448 
	C1019.163208,402.089172 1019.131165,421.883514 1018.929626,441.675171 
	C1018.886475,445.912720 1020.529297,447.384583 1024.549438,447.041718 
	C1026.861206,446.844543 1029.221680,446.820221 1031.528442,447.044861 
	C1036.250122,447.504700 1038.202026,445.653320 1038.000732,440.799652 
	C1037.725342,434.157898 1037.324219,427.423492 1038.107422,420.863770 
	C1038.857544,414.582611 1041.052368,408.473969 1043.047241,401.692932 
M1190.050903,288.499969 
	C1190.040649,292.496033 1189.991577,296.492462 1190.027100,300.488129 
	C1190.155396,314.961639 1187.950439,312.701019 1202.852539,313.073792 
	C1207.436157,313.188446 1209.106079,311.497681 1208.995972,306.967010 
	C1208.798096,298.814392 1208.729980,290.641296 1209.076660,282.496704 
	C1209.657837,268.845123 1216.704346,261.656555 1230.015625,260.234863 
	C1231.304688,260.097168 1233.144043,258.727081 1233.513184,257.548584 
	C1234.649170,253.922226 1235.522705,250.134872 1235.797119,246.359100 
	C1235.896606,244.990250 1234.164062,242.367874 1233.014282,242.214401 
	C1226.609253,241.359467 1220.284790,241.762558 1215.486450,247.004105 
	C1213.202637,249.498932 1211.120483,252.178192 1208.442871,255.375900 
	C1208.254517,254.063477 1208.115356,253.472733 1208.092285,252.877502 
	C1207.634155,241.001099 1207.122803,242.669800 1196.805176,242.585678 
	C1190.614258,242.535187 1190.163086,243.091217 1190.143921,249.537506 
	C1190.106079,262.191650 1190.083008,274.845825 1190.050903,288.499969 
M976.904358,259.150940 
	C977.921570,254.973068 979.059387,250.819656 979.912537,246.608582 
	C980.462341,243.894730 979.391907,242.248169 976.299500,241.942368 
	C967.808472,241.102798 960.908508,243.637100 956.020508,250.874054 
	C955.083862,252.260757 954.103210,253.617661 952.730652,255.576645 
	C950.534058,242.426819 950.534058,242.426849 940.616760,242.564240 
	C934.683105,242.646423 934.166077,243.149979 934.146545,249.213455 
	C934.091919,266.177368 933.983459,283.141632 934.044617,300.105225 
	C934.098511,315.044891 931.846252,312.686676 946.941345,313.074524 
	C951.602783,313.194305 953.107178,311.332794 952.992493,306.890045 
	C952.790955,299.079102 952.783081,291.253204 953.016296,283.443176 
	C953.453613,268.802185 960.631592,261.357361 975.027222,260.225464 
	C975.506042,260.187775 975.966309,259.914459 976.904358,259.150940 
M566.991943,276.784363 
	C570.595581,264.912750 575.035583,261.316376 586.859436,260.238190 
	C588.168762,260.118774 590.087402,258.839386 590.455505,257.691406 
	C591.616333,254.071030 592.273132,250.274551 592.931763,246.512390 
	C593.422791,243.707748 592.223755,242.224213 589.187378,241.932877 
	C580.663086,241.115005 573.788391,243.723663 568.939880,251.006744 
	C568.061401,252.326340 567.093384,253.586319 565.641724,255.603180 
	C565.335815,254.146271 565.128662,253.575089 565.107300,252.997025 
	C564.665588,241.056198 564.284851,242.869781 553.414185,242.496399 
	C548.569519,242.329971 547.032227,244.250732 547.069519,248.940109 
	C547.208557,266.433594 547.021790,283.929413 547.029846,301.424316 
	C547.035889,314.658142 545.425232,312.899811 558.807678,312.995026 
	C565.553650,313.043030 565.810913,312.642761 565.954895,306.008881 
	C566.160461,296.539551 566.522522,287.073608 566.991943,276.784363 
M564.870483,438.383118 
	C564.858215,447.004852 564.858215,447.004883 573.687866,447.005219 
	C575.017456,447.005249 576.361938,446.875946 577.673889,447.028137 
	C582.538452,447.592377 584.054260,445.356842 583.996521,440.664825 
	C583.785767,423.548889 583.896790,406.429260 583.824951,389.311249 
	C583.765137,375.055511 585.296875,376.758911 570.976379,376.512299 
	C566.550476,376.436127 564.823242,377.899353 564.872437,382.570007 
	C565.064697,400.849213 564.902710,419.132141 564.870483,438.383118 
M860.287781,447.005157 
	C866.595215,446.863220 866.927124,446.538116 866.920349,440.054443 
	C866.902771,423.098602 866.894958,406.142670 866.825134,389.186981 
	C866.766846,375.034851 868.282898,376.778564 853.846863,376.504791 
	C849.247192,376.417572 847.838562,378.210144 847.882019,382.702026 
	C848.052124,400.320862 847.876953,417.942810 847.886719,435.563538 
	C847.893677,448.216858 846.418640,446.958740 860.287781,447.005157 
M868.803040,349.783875 
	C868.333008,348.377411 868.054565,346.866852 867.357422,345.583771 
	C865.158386,341.536194 859.945923,339.220673 855.430054,340.306793 
	C850.831055,341.412933 847.758728,344.193237 847.020386,349.027679 
	C846.247620,354.087433 848.530579,358.346283 853.000977,360.534332 
	C860.343262,364.128082 867.151428,359.847504 868.803040,349.783875 
M576.869812,361.355682 
	C583.462891,359.479401 586.946045,354.311859 585.546082,348.483856 
	C584.244507,343.065582 578.611633,339.303284 573.074829,340.154114 
	C567.081421,341.075165 563.267273,346.176483 563.959045,352.346252 
	C564.578735,357.873199 568.888672,361.143127 576.869812,361.355682 
z"/>
<path fill="#8D6CFF" opacity="1.000000" stroke="none" 
	d="
M409.685699,164.436935 
	C414.894226,172.409317 416.438599,180.920746 416.429535,189.943054 
	C416.368530,250.758667 416.309021,311.574615 416.468140,372.389862 
	C416.501984,385.315247 412.168213,395.902863 402.990417,405.006989 
	C371.525299,436.219452 340.169586,467.543884 308.981812,499.033234 
	C299.734375,508.370087 288.939423,512.742065 275.905487,512.717407 
	C221.088272,512.613708 166.270737,512.662415 111.453323,512.680847 
	C94.228508,512.686584 80.405418,506.358704 72.894310,490.281525 
	C70.246704,484.614471 68.918388,477.817993 68.880379,471.525757 
	C68.569420,420.042603 68.732582,368.556702 68.680420,317.071716 
	C68.671707,308.467102 71.072838,300.737579 75.795212,293.573090 
	C103.734764,251.184891 131.636093,208.771439 159.505539,166.337082 
	C168.074966,153.289154 180.120377,147.056442 195.669891,147.069962 
	C254.819336,147.121368 313.968964,147.157486 373.118256,147.044067 
	C388.061310,147.015411 400.476013,151.802597 409.685699,164.436935 
M275.311951,249.968658 
	C278.602020,250.578369 279.092743,248.886139 279.061310,246.019943 
	C278.925995,233.683884 279.003510,221.345490 279.003510,209.007935 
	C279.270142,208.989792 279.536774,208.971664 279.803375,208.953522 
	C286.217804,243.550751 292.632233,278.147980 299.037140,312.694000 
	C324.154297,312.694000 348.910858,312.694000 373.699188,312.694000 
	C380.232208,276.261444 386.712463,240.123306 393.226685,203.795746 
	C376.284149,203.795746 359.905304,203.795746 343.511505,203.795746 
	C343.352448,204.848679 343.199707,205.498779 343.162994,206.155350 
	C342.103180,225.113998 341.077332,244.074615 339.961121,263.029907 
	C339.875336,264.486420 339.166473,265.906219 338.747223,267.343109 
	C338.193451,267.189026 337.639679,267.034973 337.085907,266.880920 
	C335.701660,245.844727 334.317413,224.808517 332.937012,203.830719 
	C282.116028,203.830719 231.766068,203.830719 181.507538,203.830719 
	C181.507538,219.370575 181.507538,234.461365 181.507538,250.147614 
	C187.878448,250.147614 193.940857,250.147614 200.299377,250.147614 
	C200.299377,271.351837 200.299377,291.957367 200.299377,312.733215 
	C220.202759,312.733215 239.767700,312.733215 259.892334,312.733215 
	C259.892334,291.754669 259.892334,271.037750 259.892334,249.968887 
	C265.079620,249.968887 269.715118,249.968887 275.311951,249.968658 
z"/>
<path fill="#8D6CFF" opacity="1.000000" stroke="none" 
	d="
M1095.109375,245.808044 
	C1100.143433,249.857437 1102.056519,254.923264 1102.159180,260.914673 
	C1102.424316,276.398010 1102.676514,291.883667 1103.208984,307.358948 
	C1103.361816,311.798553 1101.828613,313.462341 1097.484131,313.047485 
	C1095.008789,312.811127 1092.469482,312.788361 1089.999756,313.051819 
	C1085.489380,313.532959 1084.117065,311.292542 1084.109253,307.223663 
	C1084.088501,296.233734 1083.935791,285.244080 1083.834717,274.254303 
	C1083.820923,272.755737 1083.908447,271.247253 1083.767212,269.760590 
	C1083.335938,265.221649 1082.895874,260.383423 1077.837280,258.592499 
	C1072.494141,256.700867 1067.229980,257.581360 1062.921021,261.503082 
	C1057.539429,266.401001 1054.294067,272.583740 1054.016968,279.870483 
	C1053.675415,288.848053 1053.738770,297.848389 1053.894897,306.834259 
	C1053.970825,311.210815 1052.598511,313.189545 1047.875488,313.076874 
	C1032.769775,312.716736 1034.874878,314.855194 1034.830811,300.151276 
	C1034.801880,290.493347 1034.969360,280.834045 1034.865479,271.177338 
	C1034.810913,266.101807 1034.307983,260.975739 1028.833008,258.484650 
	C1024.067017,256.316193 1017.117798,258.233002 1012.840942,262.627991 
	C1007.994568,267.608337 1005.395935,273.667694 1005.008667,280.506866 
	C1004.510010,289.313049 1004.270081,298.141510 1004.218384,306.962128 
	C1004.193237,311.270935 1003.010925,313.261658 998.196594,313.097290 
	C983.326111,312.589447 984.998230,315.387115 985.221130,299.740845 
	C985.458191,283.092834 985.710693,266.444977 985.928589,249.796692 
	C986.019165,242.875885 986.237488,242.629898 993.336182,242.565979 
	C1002.783386,242.480927 1002.783386,242.480911 1004.407166,252.728622 
	C1011.261841,244.771011 1019.601868,241.065308 1029.487305,240.913879 
	C1039.204590,240.765076 1048.228149,242.038040 1053.442749,252.101273 
	C1065.918945,241.017883 1079.344116,236.492599 1095.109375,245.808044 
z"/>
<path fill="#8D6CFF" opacity="1.000000" stroke="none" 
	d="
M465.755890,342.506805 
	C464.891876,339.228271 466.828644,338.560547 468.971344,338.504639 
	C474.296173,338.365601 479.684448,337.972046 484.923340,338.645172 
	C486.827820,338.889832 489.190643,341.568024 489.966125,343.649475 
	C496.171387,360.304840 502.043030,377.084442 508.026154,393.822693 
	C508.749603,395.846680 509.528595,397.850830 510.707581,401.002075 
	C512.024048,397.286652 513.033264,394.574982 513.948792,391.832092 
	C519.314636,375.756378 524.741150,359.700043 529.948547,343.573029 
	C531.160645,339.819275 533.098999,338.076630 537.128479,338.323578 
	C541.276611,338.577850 545.457336,338.257568 549.614319,338.424469 
	C554.498291,338.620514 555.219727,339.890839 553.219727,344.863098 
	C547.515442,359.044769 541.672791,373.170776 535.976746,387.355682 
	C528.671509,405.548035 521.461060,423.778503 514.192444,441.985596 
	C513.577576,443.525757 512.977112,445.102936 512.114441,446.505768 
	C510.645050,448.895264 508.885712,448.770111 507.577393,446.404510 
	C506.458191,444.380829 505.664581,442.170624 504.799255,440.013916 
	C491.808838,407.636810 478.830444,375.254913 465.755890,342.506805 
z"/>
<path fill="#8D6CFF" opacity="1.000000" stroke="none" 
	d="
M725.100342,412.082581 
	C725.599487,402.809021 727.744263,394.528198 733.091980,387.325439 
	C743.394104,373.449677 762.343323,370.585907 777.226990,380.627441 
	C778.704407,381.624207 780.142395,382.679443 781.364624,383.542328 
	C782.845459,381.087250 783.835266,377.454956 785.452393,377.150085 
	C789.766968,376.336609 794.371704,376.747223 798.809753,377.188263 
	C799.629456,377.269714 800.793762,379.765106 800.810852,381.158447 
	C801.062378,401.655975 801.121582,422.155762 801.296265,442.654419 
	C801.323608,445.867584 799.966492,447.226837 796.781738,447.026733 
	C794.789612,446.901581 792.783203,447.005280 790.783203,447.005188 
	C782.679993,447.004822 782.679993,447.004669 781.831177,438.210541 
	C780.153625,439.375214 778.741150,440.321808 777.364197,441.317535 
	C768.970032,447.387543 759.581909,449.395264 749.444824,447.913055 
	C737.815369,446.212616 728.514282,436.271057 726.101868,422.966125 
	C725.481201,419.543488 725.412537,416.020782 725.100342,412.082581 
M768.804565,430.849792 
	C781.261719,426.441895 786.741638,413.411865 781.224731,401.317047 
	C776.527100,391.018463 761.174438,387.372650 752.214355,394.427979 
	C744.992493,400.114624 742.497253,409.812927 745.974304,418.681580 
	C749.539673,427.775604 756.616760,431.731323 768.804565,430.849792 
z"/>
<path fill="#8D6CFF" opacity="1.000000" stroke="none" 
	d="
M635.785767,312.979034 
	C614.281433,318.978973 597.632202,306.853180 595.285278,283.728119 
	C594.447083,275.469238 595.757874,267.440857 599.190491,259.874390 
	C607.741943,241.024582 629.659668,234.933502 647.040039,246.496811 
	C648.550110,247.501526 650.000732,248.595734 651.376831,249.575592 
	C652.724670,247.202072 653.609619,243.568207 655.222412,243.209808 
	C659.338196,242.295227 663.804382,242.576721 668.070923,242.991409 
	C669.127930,243.094131 670.754272,245.512650 670.774048,246.886063 
	C671.071655,267.520386 671.131165,288.158020 671.284119,308.794617 
	C671.305359,311.665771 670.187927,313.171051 667.151978,313.020966 
	C665.159668,312.922485 663.158508,313.005096 661.161316,313.005127 
	C652.753113,313.005157 652.753113,313.004974 651.873840,304.986694 
	C646.662109,307.612000 641.422852,310.251160 635.785767,312.979034 
M651.765625,268.446259 
	C649.878296,265.964966 648.396179,262.973511 646.030579,261.094238 
	C637.587097,254.386581 625.539185,255.569656 619.158264,263.350830 
	C612.164246,271.879608 613.037231,284.966827 621.093323,292.228394 
	C627.485474,297.990143 634.847412,298.689941 642.425232,295.484711 
	C649.603760,292.448364 652.941101,286.753418 652.092224,278.743195 
	C651.760986,275.616852 651.986572,272.431458 651.765625,268.446259 
z"/>
<path fill="#8D6CFF" opacity="1.000000" stroke="none" 
	d="
M879.539978,313.651794 
	C859.828430,308.473480 849.440613,292.385590 852.516479,272.338501 
	C855.631104,252.038712 870.481995,239.696152 890.571350,240.711044 
	C909.903687,241.687698 922.612915,254.217392 924.281982,273.945587 
	C925.972412,293.926392 915.570190,309.874603 897.791931,313.381927 
	C892.044250,314.515839 885.908325,313.681702 879.539978,313.651794 
M874.158020,265.866272 
	C869.926025,274.274658 869.917542,282.568115 875.356628,290.410889 
	C882.081665,300.108063 895.944275,299.530579 902.042297,289.416840 
	C905.892578,283.031128 906.258545,276.208435 904.013855,269.252991 
	C901.999146,263.010345 898.110046,258.337372 891.358459,257.187988 
	C884.037109,255.941528 878.357910,258.781250 874.158020,265.866272 
z"/>
<path fill="#8D6CFF" opacity="1.000000" stroke="none" 
	d="
M715.669312,418.001984 
	C715.783264,426.327179 715.794495,434.155426 716.038330,441.976410 
	C716.150452,445.574249 714.865967,447.361877 711.136597,447.011261 
	C710.641479,446.964722 710.138062,447.009796 709.638611,447.004761 
	C697.129639,446.879089 699.862793,448.100067 697.518921,438.916504 
	C691.126465,441.746185 684.849304,445.571991 678.040405,447.288483 
	C668.317383,449.739594 658.525452,448.922760 650.063049,442.372131 
	C645.359802,438.731384 643.276550,433.779633 643.275879,428.013611 
	C643.274048,412.528473 643.483215,397.043427 643.501282,381.558197 
	C643.505493,377.942017 645.054504,376.516327 648.614136,376.544495 
	C665.069824,376.674805 661.988281,375.133575 662.209778,389.423737 
	C662.351746,398.579254 662.135620,407.739807 662.187439,416.897491 
	C662.216492,422.034485 661.734192,427.473328 667.707458,430.181702 
	C674.550049,433.284241 681.089478,432.626770 686.948730,428.028748 
	C694.358276,422.214050 696.629700,413.967987 696.799438,404.999237 
	C696.941101,397.508850 697.072693,390.002930 696.742432,382.524506 
	C696.533203,377.787628 698.472961,376.433868 702.869629,376.511169 
	C717.222961,376.763580 715.327942,375.158569 715.390320,389.030762 
	C715.433044,398.521393 715.567932,408.011627 715.669312,418.001984 
z"/>
<path fill="#8D6CFF" opacity="1.000000" stroke="none" 
	d="
M534.997681,223.320465 
	C526.966614,223.477142 519.333862,223.477142 511.012085,223.477142 
	C511.012085,225.869858 511.011047,227.634216 511.012238,229.398575 
	C511.029449,254.882401 511.048737,280.366241 511.063293,305.850067 
	C511.067322,312.842377 510.921875,313.050873 504.213226,312.996277 
	C488.869080,312.871429 491.005676,314.922241 490.968109,299.794281 
	C490.910248,276.475983 490.989532,253.157303 491.010254,229.838791 
	C491.011841,228.037888 491.010437,226.237000 491.010437,223.724228 
	C484.385101,223.724228 478.117981,223.537064 471.868195,223.785385 
	C467.141663,223.973175 465.363861,222.051086 465.298859,217.381729 
	C465.081909,201.793884 464.705658,204.505859 477.332550,204.408585 
	C494.820435,204.273834 512.310120,204.372025 529.799011,204.376099 
	C537.704346,204.377945 537.962463,204.421509 537.626343,212.527603 
	C537.478271,216.097702 536.174866,219.619858 534.997681,223.320465 
z"/>
<path fill="#8D6CFF" opacity="1.000000" stroke="none" 
	d="
M752.368347,304.152802 
	C752.496277,313.005768 752.496277,313.005768 743.953064,313.006195 
	C733.258179,313.006744 733.237488,313.006836 733.188782,302.445435 
	C733.139648,291.789734 733.087036,281.133575 733.136353,270.478088 
	C733.160034,265.354706 732.309753,260.793121 726.937073,258.540680 
	C721.778625,256.378143 714.960815,258.013489 710.916443,262.301666 
	C704.921509,268.658203 703.382935,276.563416 703.186035,284.866943 
	C703.008362,292.356018 702.941101,299.853088 703.075806,307.342102 
	C703.146851,311.296234 701.861938,313.152466 697.626526,313.055603 
	C681.645264,312.689972 684.076965,315.233673 684.101074,299.764252 
	C684.127502,282.782196 684.508362,265.799927 684.441162,248.818893 
	C684.422119,244.019791 686.126892,242.021637 690.849915,242.550461 
	C691.672058,242.642548 692.513428,242.562683 693.345886,242.562851 
	C701.093262,242.564438 701.086487,242.565659 702.398987,250.010651 
	C702.510620,250.643814 702.794067,251.246674 703.230774,252.569519 
	C710.129883,243.958679 719.131409,240.885757 729.371155,240.902908 
	C743.165344,240.926025 751.771301,249.439926 751.958984,263.253571 
	C752.142151,276.738251 752.230103,290.224243 752.368347,304.152802 
z"/>
<path fill="#8D6CFF" opacity="1.000000" stroke="none" 
	d="
M1007.695251,395.409302 
	C1008.218994,397.041351 1008.505188,398.350281 1008.970337,399.592194 
	C1010.382935,403.363586 1008.999329,405.457275 1005.300537,406.775177 
	C993.092651,411.125031 980.942444,415.637329 968.780518,420.115601 
	C967.096069,420.735840 965.470398,421.515747 963.800964,422.228851 
	C968.564758,431.405853 979.341248,435.590454 990.015137,432.533875 
	C991.916931,431.989258 993.741821,431.132202 995.545715,430.297394 
	C1004.362915,426.217316 1004.680054,426.425354 1008.339905,435.584076 
	C1009.577454,438.681061 1009.037964,440.716797 1006.146545,442.179352 
	C992.168945,449.249451 977.641724,451.531891 962.780945,445.688416 
	C948.474854,440.063080 941.018738,426.049957 942.207520,408.693451 
	C943.897461,384.021118 964.964539,369.145233 988.663025,375.921143 
	C998.533081,378.743195 1003.904602,386.055542 1007.695251,395.409302 
M967.613159,408.097015 
	C975.205200,405.456909 982.797302,402.816833 990.466797,400.149780 
	C986.048950,391.433319 979.785461,388.439667 972.374268,391.004608 
	C965.294006,393.455017 960.049377,402.717651 961.708069,410.127655 
	C963.434509,409.531860 965.146667,408.941010 967.613159,408.097015 
z"/>
<path fill="#8D6CFF" opacity="1.000000" stroke="none" 
	d="
M1159.949219,313.990051 
	C1151.511108,315.528656 1143.578003,315.181854 1135.862671,312.569855 
	C1120.631958,307.413544 1112.086914,293.121948 1113.192993,274.971802 
	C1114.709595,250.093552 1136.027344,235.009552 1159.863159,241.949158 
	C1169.957031,244.887878 1180.163818,257.511078 1180.312500,267.950195 
	C1180.334717,269.513519 1178.048218,271.896240 1176.312866,272.571686 
	C1164.241333,277.270203 1152.030273,281.610352 1139.871948,286.087036 
	C1138.174438,286.712097 1136.520386,287.455231 1134.877563,288.130829 
	C1137.311035,296.290710 1149.811890,301.605652 1160.913818,298.565247 
	C1162.977539,298.000122 1164.947144,297.041412 1166.901978,296.138336 
	C1174.787842,292.495148 1178.727417,294.534973 1179.781128,303.377319 
	C1179.963135,304.904388 1178.238892,307.584259 1176.750488,308.218201 
	C1171.443359,310.478729 1165.858154,312.086578 1159.949219,313.990051 
M1132.429321,275.912354 
	C1142.092651,272.715424 1151.756104,269.518494 1161.518188,266.288879 
	C1156.711426,256.645905 1148.940063,253.638809 1141.213989,258.098816 
	C1134.716187,261.849731 1132.313843,268.023010 1132.429321,275.912354 
z"/>
<path fill="#8D6CFF" opacity="1.000000" stroke="none" 
	d="
M821.159790,313.004242 
	C814.158081,312.884216 813.966064,312.701141 813.977661,306.195953 
	C814.002563,292.200287 814.040833,278.204620 814.072388,264.208954 
	C814.076416,262.409393 814.072998,260.609833 814.072998,258.902466 
	C804.442993,256.958191 804.726257,256.957336 804.697083,247.457642 
	C804.675049,240.280182 810.213196,243.062927 813.275574,241.988693 
	C814.160095,234.578751 814.228149,227.156906 816.037109,220.186905 
	C820.756836,202.001175 834.110413,200.308350 848.236511,202.485321 
	C848.872986,202.583389 850.010559,203.035172 849.992676,203.242691 
	C849.623291,207.527496 849.469543,211.886703 848.450806,216.028976 
	C848.101685,217.448547 845.563599,219.209488 843.951904,219.287247 
	C836.794128,219.632492 834.559265,220.996796 833.568176,227.873459 
	C832.913574,232.415283 833.058289,237.072327 832.819031,242.241684 
	C836.564575,242.241684 839.684143,242.281418 842.802185,242.230545 
	C845.941345,242.179337 847.230225,243.591263 847.212280,246.786972 
	C847.137329,260.131714 847.986511,258.059235 836.644531,258.186676 
	C835.670349,258.197601 834.697388,258.321289 832.980347,258.447052 
	C832.980347,260.348114 832.979431,262.099152 832.980408,263.850189 
	C832.988342,277.512665 832.998535,291.175140 833.004150,304.837616 
	C833.007507,313.003052 833.004395,313.003052 824.625732,313.004211 
	C823.626038,313.004364 822.626343,313.004242 821.159790,313.004242 
z"/>
<path fill="#8D6CFF" opacity="1.000000" stroke="none" 
	d="
M879.632690,437.714233 
	C887.694275,423.214264 895.550964,409.034271 903.913940,393.940582 
	C896.721741,393.940582 890.641418,393.821716 884.568542,393.982788 
	C880.590088,394.088287 878.816528,392.653473 878.899719,388.463989 
	C879.155945,375.555206 877.138611,376.597870 890.506470,376.572113 
	C902.321350,376.549347 914.136536,376.521637 925.951111,376.586884 
	C932.580688,376.623474 933.250732,377.714844 930.149231,383.458191 
	C922.965942,396.759949 915.692200,410.012817 908.466370,423.291656 
	C907.523438,425.024506 906.647156,426.793640 905.147522,429.690430 
	C909.975464,429.690430 913.992065,429.690460 918.008606,429.690460 
	C919.339844,429.690460 920.671143,429.690460 922.002380,429.690460 
	C934.101807,429.690460 935.277893,430.928619 933.482605,443.093414 
	C933.266785,444.555573 930.947571,446.808746 929.573608,446.830627 
	C913.269897,447.090149 896.960144,447.052979 880.652893,446.953308 
	C876.507507,446.927979 875.743774,445.403076 877.516785,441.534027 
	C878.069214,440.328644 878.786133,439.198669 879.632690,437.714233 
z"/>
<path fill="#8D6CFF" opacity="1.000000" stroke="none" 
	d="
M833.881531,393.000000 
	C833.911865,409.312592 833.834106,425.126556 834.038818,440.936859 
	C834.097351,445.451782 832.559387,447.173767 827.952820,447.073547 
	C812.902954,446.746185 814.986145,448.762421 814.952759,434.056641 
	C814.883667,403.596741 814.924927,373.136627 814.924683,342.676605 
	C814.924622,335.508728 815.126343,335.320038 822.105103,335.275696 
	C835.810425,335.188629 833.917908,334.937103 833.947388,347.059479 
	C833.984131,362.206177 833.908020,377.353149 833.881531,393.000000 
z"/>
<path fill="#8D6CFF" opacity="1.000000" stroke="none" 
	d="
M602.762695,378.652069 
	C611.000122,373.604584 619.209106,374.304871 627.529236,377.266571 
	C633.211121,379.289154 630.530640,383.302887 629.795349,386.825867 
	C628.997498,390.649078 626.451721,390.915283 623.320374,389.904755 
	C622.374573,389.599548 621.225952,388.833252 620.503418,389.119385 
	C617.775696,390.199524 614.048035,391.005188 612.896301,393.115326 
	C611.944519,394.859131 613.410828,398.872864 615.054199,400.835205 
	C616.976685,403.130890 620.225220,404.339569 622.946167,405.938843 
	C633.045532,411.875092 636.520081,423.356567 631.870544,435.547577 
	C627.909302,445.933624 618.298523,450.913818 606.828003,448.492065 
	C605.368469,448.183929 603.908142,447.812073 602.506531,447.307495 
	C593.275513,443.984131 591.318604,438.860352 596.441223,430.509064 
	C597.103210,429.429932 599.771912,428.910645 601.315430,429.194763 
	C603.864441,429.664093 606.180725,431.351257 608.729126,431.882416 
	C611.991882,432.562531 615.320374,432.032715 616.585632,428.337494 
	C617.854187,424.632690 616.740295,421.459839 613.241943,419.336365 
	C610.115967,417.438965 606.854736,415.722351 603.913513,413.570221 
	C592.508606,405.225250 591.853027,388.080505 602.762695,378.652069 
z"/>
<path fill="#8D6CFF" opacity="1.000000" stroke="none" 
	d="
M766.615601,248.733215 
	C774.042908,238.731842 788.680054,239.912003 796.546265,243.792053 
	C801.323120,246.148254 798.298279,249.841782 797.708740,252.957199 
	C797.147583,255.922241 795.168152,257.098145 792.153015,256.092987 
	C791.680542,255.935471 791.190125,255.832153 790.708679,255.701126 
	C785.682251,254.333038 781.739197,255.516266 780.518005,259.066101 
	C778.975464,263.550171 781.564026,266.318115 785.020325,268.525146 
	C786.419983,269.418915 787.908630,270.172363 789.345886,271.008270 
	C801.540710,278.100647 805.354675,292.478271 798.321655,304.829681 
	C791.728210,316.409180 772.082336,318.717865 763.131104,308.965118 
	C761.255859,306.921967 762.082886,299.152924 764.637024,295.878143 
	C767.093994,292.727905 769.372681,295.498535 771.700989,296.233398 
	C773.584778,296.827881 775.432617,297.665802 777.362488,297.955780 
	C780.575867,298.438690 783.557739,297.645477 784.641174,294.205170 
	C785.738831,290.719757 784.850769,287.597443 781.525024,285.551147 
	C779.118896,284.070618 776.617615,282.736969 774.267395,281.174347 
	C762.636719,273.441040 759.716614,261.435944 766.615601,248.733215 
z"/>
<path fill="#8D6CFF" opacity="1.000000" stroke="none" 
	d="
M1042.829712,401.991211 
	C1041.052368,408.473969 1038.857544,414.582611 1038.107422,420.863770 
	C1037.324219,427.423492 1037.725342,434.157898 1038.000732,440.799652 
	C1038.202026,445.653320 1036.250122,447.504700 1031.528442,447.044861 
	C1029.221680,446.820221 1026.861206,446.844543 1024.549438,447.041718 
	C1020.529297,447.384583 1018.886475,445.912720 1018.929626,441.675171 
	C1019.131165,421.883514 1019.163208,402.089172 1019.087830,382.296448 
	C1019.071350,377.964233 1020.835632,376.524017 1025.037598,376.496552 
	C1035.695923,376.426941 1035.695068,376.288055 1037.641479,389.562805 
	C1039.043945,387.625549 1040.056152,386.312317 1040.978638,384.938721 
	C1045.846436,377.689667 1052.723022,375.111542 1061.224854,375.935974 
	C1064.273682,376.231659 1065.405151,377.755676 1064.932373,380.538361 
	C1064.321289,384.135162 1063.820312,387.812256 1062.599976,391.213684 
	C1062.109375,392.580963 1059.778931,394.250824 1058.383057,394.166901 
	C1051.708252,393.765564 1046.816528,396.450745 1042.829712,401.991211 
z"/>
<path fill="#8D6CFF" opacity="1.000000" stroke="none" 
	d="
M1190.052368,288.000000 
	C1190.083008,274.845825 1190.106079,262.191650 1190.143921,249.537506 
	C1190.163086,243.091217 1190.614258,242.535187 1196.805176,242.585678 
	C1207.122803,242.669800 1207.634155,241.001099 1208.092285,252.877502 
	C1208.115356,253.472733 1208.254517,254.063477 1208.442871,255.375900 
	C1211.120483,252.178192 1213.202637,249.498932 1215.486450,247.004105 
	C1220.284790,241.762558 1226.609253,241.359467 1233.014282,242.214401 
	C1234.164062,242.367874 1235.896606,244.990250 1235.797119,246.359100 
	C1235.522705,250.134872 1234.649170,253.922226 1233.513184,257.548584 
	C1233.144043,258.727081 1231.304688,260.097168 1230.015625,260.234863 
	C1216.704346,261.656555 1209.657837,268.845123 1209.076660,282.496704 
	C1208.729980,290.641296 1208.798096,298.814392 1208.995972,306.967010 
	C1209.106079,311.497681 1207.436157,313.188446 1202.852539,313.073792 
	C1187.950439,312.701019 1190.155396,314.961639 1190.027100,300.488129 
	C1189.991577,296.492462 1190.040649,292.496033 1190.052368,288.000000 
z"/>
<path fill="#8D6CFF" opacity="1.000000" stroke="none" 
	d="
M976.669800,259.450958 
	C975.966309,259.914459 975.506042,260.187775 975.027222,260.225464 
	C960.631592,261.357361 953.453613,268.802185 953.016296,283.443176 
	C952.783081,291.253204 952.790955,299.079102 952.992493,306.890045 
	C953.107178,311.332794 951.602783,313.194305 946.941345,313.074524 
	C931.846252,312.686676 934.098511,315.044891 934.044617,300.105225 
	C933.983459,283.141632 934.091919,266.177368 934.146545,249.213455 
	C934.166077,243.149979 934.683105,242.646423 940.616760,242.564240 
	C950.534058,242.426849 950.534058,242.426819 952.730652,255.576645 
	C954.103210,253.617661 955.083862,252.260757 956.020508,250.874054 
	C960.908508,243.637100 967.808472,241.102798 976.299500,241.942368 
	C979.391907,242.248169 980.462341,243.894730 979.912537,246.608582 
	C979.059387,250.819656 977.921570,254.973068 976.669800,259.450958 
z"/>
<path fill="#8D6CFF" opacity="1.000000" stroke="none" 
	d="
M566.904846,277.195312 
	C566.522522,287.073608 566.160461,296.539551 565.954895,306.008881 
	C565.810913,312.642761 565.553650,313.043030 558.807678,312.995026 
	C545.425232,312.899811 547.035889,314.658142 547.029846,301.424316 
	C547.021790,283.929413 547.208557,266.433594 547.069519,248.940109 
	C547.032227,244.250732 548.569519,242.329971 553.414185,242.496399 
	C564.284851,242.869781 564.665588,241.056198 565.107300,252.997025 
	C565.128662,253.575089 565.335815,254.146271 565.641724,255.603180 
	C567.093384,253.586319 568.061401,252.326340 568.939880,251.006744 
	C573.788391,243.723663 580.663086,241.115005 589.187378,241.932877 
	C592.223755,242.224213 593.422791,243.707748 592.931763,246.512390 
	C592.273132,250.274551 591.616333,254.071030 590.455505,257.691406 
	C590.087402,258.839386 588.168762,260.118774 586.859436,260.238190 
	C575.035583,261.316376 570.595581,264.912750 566.904846,277.195312 
z"/>
<path fill="#8D6CFF" opacity="1.000000" stroke="none" 
	d="
M564.871460,437.898376 
	C564.902710,419.132141 565.064697,400.849213 564.872437,382.570007 
	C564.823242,377.899353 566.550476,376.436127 570.976379,376.512299 
	C585.296875,376.758911 583.765137,375.055511 583.824951,389.311249 
	C583.896790,406.429260 583.785767,423.548889 583.996521,440.664825 
	C584.054260,445.356842 582.538452,447.592377 577.673889,447.028137 
	C576.361938,446.875946 575.017456,447.005249 573.687866,447.005219 
	C564.858215,447.004883 564.858215,447.004852 564.871460,437.898376 
z"/>
<path fill="#8D6CFF" opacity="1.000000" stroke="none" 
	d="
M859.822632,447.005188 
	C846.418640,446.958740 847.893677,448.216858 847.886719,435.563538 
	C847.876953,417.942810 848.052124,400.320862 847.882019,382.702026 
	C847.838562,378.210144 849.247192,376.417572 853.846863,376.504791 
	C868.282898,376.778564 866.766846,375.034851 866.825134,389.186981 
	C866.894958,406.142670 866.902771,423.098602 866.920349,440.054443 
	C866.927124,446.538116 866.595215,446.863220 859.822632,447.005188 
z"/>
<path fill="#8D6CFF" opacity="1.000000" stroke="none" 
	d="
M868.827637,350.175903 
	C867.151428,359.847504 860.343262,364.128082 853.000977,360.534332 
	C848.530579,358.346283 846.247620,354.087433 847.020386,349.027679 
	C847.758728,344.193237 850.831055,341.412933 855.430054,340.306793 
	C859.945923,339.220673 865.158386,341.536194 867.357422,345.583771 
	C868.054565,346.866852 868.333008,348.377411 868.827637,350.175903 
z"/>
<path fill="#8D6CFF" opacity="1.000000" stroke="none" 
	d="
M576.497803,361.466370 
	C568.888672,361.143127 564.578735,357.873199 563.959045,352.346252 
	C563.267273,346.176483 567.081421,341.075165 573.074829,340.154114 
	C578.611633,339.303284 584.244507,343.065582 585.546082,348.483856 
	C586.946045,354.311859 583.462891,359.479401 576.497803,361.466370 
z"/>
<path fill="#F1F0F1" opacity="1.000000" stroke="none" 
	d="
M274.831299,249.968781 
	C269.715118,249.968887 265.079620,249.968887 259.892334,249.968887 
	C259.892334,271.037750 259.892334,291.754669 259.892334,312.733215 
	C239.767700,312.733215 220.202759,312.733215 200.299377,312.733215 
	C200.299377,291.957367 200.299377,271.351837 200.299377,250.147614 
	C193.940857,250.147614 187.878448,250.147614 181.507538,250.147614 
	C181.507538,234.461365 181.507538,219.370575 181.507538,203.830719 
	C231.766068,203.830719 282.116028,203.830719 332.937012,203.830719 
	C334.317413,224.808517 335.701660,245.844727 337.085907,266.880920 
	C337.639679,267.034973 338.193451,267.189026 338.747223,267.343109 
	C339.166473,265.906219 339.875336,264.486420 339.961121,263.029907 
	C341.077332,244.074615 342.103180,225.113998 343.162994,206.155350 
	C343.199707,205.498779 343.352448,204.848679 343.511505,203.795746 
	C359.905304,203.795746 376.284149,203.795746 393.226685,203.795746 
	C386.712463,240.123306 380.232208,276.261444 373.699188,312.694000 
	C348.910858,312.694000 324.154297,312.694000 299.037140,312.694000 
	C292.632233,278.147980 286.217804,243.550751 279.803375,208.953522 
	C279.536774,208.971664 279.270142,208.989792 279.003510,209.007935 
	C279.003510,221.345490 278.925995,233.683884 279.061310,246.019943 
	C279.092743,248.886139 278.602020,250.578369 274.831299,249.968781 
z"/>
<path opacity="1.000000" stroke="none" 
	d="
M768.379272,430.908447 
	C756.616760,431.731323 749.539673,427.775604 745.974304,418.681580 
	C742.497253,409.812927 744.992493,400.114624 752.214355,394.427979 
	C761.174438,387.372650 776.527100,391.018463 781.224731,401.317047 
	C786.741638,413.411865 781.261719,426.441895 768.379272,430.908447 
z"/>
<path opacity="1.000000" stroke="none" 
	d="
M651.862061,268.859619 
	C651.986572,272.431458 651.760986,275.616852 652.092224,278.743195 
	C652.941101,286.753418 649.603760,292.448364 642.425232,295.484711 
	C634.847412,298.689941 627.485474,297.990143 621.093323,292.228394 
	C613.037231,284.966827 612.164246,271.879608 619.158264,263.350830 
	C625.539185,255.569656 637.587097,254.386581 646.030579,261.094238 
	C648.396179,262.973511 649.878296,265.964966 651.862061,268.859619 
z"/>
<path opacity="1.000000" stroke="none" 
	d="
M874.358643,265.546326 
	C878.357910,258.781250 884.037109,255.941528 891.358459,257.187988 
	C898.110046,258.337372 901.999146,263.010345 904.013855,269.252991 
	C906.258545,276.208435 905.892578,283.031128 902.042297,289.416840 
	C895.944275,299.530579 882.081665,300.108063 875.356628,290.410889 
	C869.917542,282.568115 869.926025,274.274658 874.358643,265.546326 
z"/>
<path opacity="1.000000" stroke="none" 
	d="
M967.235962,408.223572 
	C965.146667,408.941010 963.434509,409.531860 961.708069,410.127655 
	C960.049377,402.717651 965.294006,393.455017 972.374268,391.004608 
	C979.785461,388.439667 986.048950,391.433319 990.466797,400.149780 
	C982.797302,402.816833 975.205200,405.456909 967.235962,408.223572 
z"/>
<path opacity="1.000000" stroke="none" 
	d="
M1132.208008,275.561768 
	C1132.313843,268.023010 1134.716187,261.849731 1141.213989,258.098816 
	C1148.940063,253.638809 1156.711426,256.645905 1161.518188,266.288879 
	C1151.756104,269.518494 1142.092651,272.715424 1132.208008,275.561768 
z"/>
</svg>